<?xml version="1.0" encoding="utf-8"?>
<!-- Generator: Adobe Illustrator 24.0.1, SVG Export Plug-In . SVG Version: 6.00 Build 0)  -->
<svg version="1.1" id="Capa_1" xmlns="http://www.w3.org/2000/svg" xmlns:xlink="http://www.w3.org/1999/xlink" x="0px" y="0px"
	 viewBox="0 0 612 792" enable-background="new 0 0 612 792" xml:space="preserve">
<g id="Capa_2_1_" display="none">
	<rect x="33.6" y="103" display="inline" fill="#0C0A0C" stroke="#000000" stroke-miterlimit="10" width="547.9" height="609.7"/>
</g>
<g id="Capa_1_1_">
	<g>
		<g>
			<defs>
				<path id="SVGID_1_" d="M132.8,352.4c0.8,1.7,1.6,3.5,2.3,5.3c19.9,42.4,68.3,63.8,117.1,50.7l0.1,0.3
					c10,35.6,38.1,59.9,72.2,67.3c1.8,0,3.5,0,5.3,0c1,0,1.9,0.1,2.9,0.1c6.9,0.4,13.7,1.4,20.3,3.1c1.1,0.3,2.2,0.6,3.2,0.9
					c19.7,5.8,37,17.5,49.3,33.9c0.5,2.7,1.2,5.4,1.9,8.2c0.7,2.6,1.5,5.1,2.4,7.5c1.5-0.4,3-0.8,4.5-1.3c2.6-0.8,5.1-1.6,7.7-2.5
					c36.7-13,67.4-36.3,89.5-65.3c17.7-23.1,29.9-49.8,35.3-77.7c5-25.4,4.4-51.7-2.8-77.3c-5.4-19-13.9-36.1-25-50.8
					c-0.7,16-5.2,31.7-12.7,46c-2.5,4.8-5.4,9.4-8.6,13.9c-52.4,64.9-143.1,71.5-210,47.9c-3.7-1.3-7.3-2.7-10.8-4.3
					c-3.5-1.6-7-3.3-10.4-5.1c-4.1-2.2-8.2-4.6-12.1-7.2c-6.2-4.1-12.2-8.7-17.7-13.7c-1.5-1.3-2.9-2.7-4.3-4.1
					c-5.2-4.7-10.7-9.1-16.6-13c-13.6-9.2-28.7-16.3-44.8-21c-13.3-3.9-27.4-6.1-41.8-6.4c-1.2,0-2.5-0.1-3.7-0.1
					c-20.1-0.1-40.9,3.3-61.5,10.6c-0.9,0.3-1.8,0.6-2.6,1C92.6,304.5,119.2,323.6,132.8,352.4"/>
			</defs>
			<clipPath id="SVGID_2_">
				<use xlink:href="#SVGID_1_"  overflow="visible"/>
			</clipPath>
			
				<linearGradient id="SVGID_3_" gradientUnits="userSpaceOnUse" x1="-231.9829" y1="565.4377" x2="-230.983" y2="565.4377" gradientTransform="matrix(436.6219 -144.9227 132.109 434.4016 26683.6289 -278840.6875)">
				<stop  offset="0" style="stop-color:#518B83"/>
				<stop  offset="0.1245" style="stop-color:#518B83"/>
				<stop  offset="0.2562" style="stop-color:#5B9087"/>
				<stop  offset="0.3479" style="stop-color:#5B9087"/>
				<stop  offset="0.5437" style="stop-color:#5A9087"/>
				<stop  offset="0.9104" style="stop-color:#B4C6AB"/>
				<stop  offset="0.9563" style="stop-color:#B3C7A6"/>
				<stop  offset="1" style="stop-color:#BEBFC4"/>
			</linearGradient>
			<polygon clip-path="url(#SVGID_2_)" fill="url(#SVGID_3_)" points="0.4,140.6 506.5,-27.4 670.3,511.2 164.2,679.2 			"/>
		</g>
	</g>
	<g>
		<g>
			<defs>
				
					<rect id="SVGID_4_" x="-186.2" y="-223.77" transform="matrix(0.6573 -0.7536 0.7536 0.6573 -193.2001 366.355)" width="984.88" height="1238.77"/>
			</defs>
			<clipPath id="SVGID_5_">
				<use xlink:href="#SVGID_4_"  overflow="visible"/>
			</clipPath>
			<path clip-path="url(#SVGID_5_)" fill="#B0D1CA" d="M327.2,538c0.2,0.8,0.4,1.7,0.6,2.6c-0.5,5.6-0.6,11.3-0.1,17
				c-1.2,0.3-2.4,0.5-3.6,0.7c-0.8,0.2-1.7,0.3-2.5,0.5c-20.1,3.6-40,3.6-58.9,0.3c-1.2-0.2-2.4-0.4-3.6-0.6
				c-6.2-1.2-12.4-2.7-18.4-4.6c-2-0.6-4-1.3-6-2c-4.9-1.7-9.7-3.7-14.3-5.9c-11.8-5.6-22.7-12.5-32.7-20.8c3.5,0.3,7,0.6,10.5,0.7
				c1.4,0,2.7,0.1,4,0.1c0.8,0,1.5,0,2.3,0s1.7,0,2.5,0c1.4,0,2.7-0.1,4.1-0.1c1.3,0,2.5-0.1,3.7-0.2c0.7,0,1.4-0.1,2.1-0.2
				c1.1-0.1,2.3-0.2,3.4-0.3c1.3-0.1,2.7-0.3,4-0.4c0.4,0,0.8-0.1,1.2-0.1c1.1-0.1,2.1-0.3,3.2-0.4c0.3,0,0.6-0.1,0.9-0.1
				c1.2-0.2,2.4-0.4,3.6-0.6c0.2,0,0.4-0.1,0.6-0.1c0.1,0,0.2,0,0.4-0.1c0.8-0.1,1.6-0.3,2.4-0.4c0.5-0.1,1-0.2,1.5-0.3
				c0.8-0.1,1.5-0.3,2.3-0.5c0.5-0.1,1-0.2,1.5-0.3c0.8-0.2,1.7-0.4,2.5-0.6c0.7-0.1,1.3-0.3,2-0.5c1-0.2,2.1-0.5,3.1-0.8
				c1-0.2,2-0.5,3-0.8c2.4-0.7,4.9-1.4,7.3-2.2c1.4-0.5,2.8-0.9,4.2-1.4c0.7-0.2,1.3-0.5,1.9-0.7c0.7-0.3,1.5-0.5,2.2-0.8
				c2-0.7,3.9-1.5,5.8-2.3c1.1-0.5,2.1-0.9,3.2-1.4s2.1-0.9,3.2-1.4c0.8-0.4,1.7-0.8,2.5-1.2c0.2-0.1,0.5-0.2,0.7-0.3
				c-0.2,0.9-0.5,1.8-0.6,2.7c8-1,15.7,0.3,22.5,3.3c0.4,0.2,0.7,0.3,1.1,0.5c0.7,0.3,1.3,0.7,2,1c0.5,0.3,1,0.6,1.5,0.9
				c2.4,1.5,4.7,3.3,6.7,5.2c0.4,0.4,0.8,0.8,1.2,1.2c0.3,0.3,0.6,0.7,0.9,1c0.1,0.1,0.2,0.3,0.4,0.4c0.3,0.4,0.7,0.8,1,1.2
				c0.4,0.4,0.7,0.9,1,1.4s0.7,0.9,1,1.5c0.3,0.5,0.6,1,0.9,1.5s0.6,1,0.8,1.5l0.1,0.1c0.2,0.4,0.4,0.8,0.5,1.1
				c0.1,0.2,0.3,0.5,0.4,0.7c0.2,0.4,0.3,0.8,0.5,1.1c0.1,0.1,0.1,0.2,0.1,0.3c0.2,0.5,0.4,1,0.6,1.5v0.2c0.2,0.5,0.4,1.1,0.5,1.7
				C327.1,537.5,327.2,537.8,327.2,538"/>
		</g>
		<g>
			<defs>
				
					<rect id="SVGID_6_" x="-186.2" y="-223.77" transform="matrix(0.6573 -0.7536 0.7536 0.6573 -193.2001 366.355)" width="984.88" height="1238.77"/>
			</defs>
			<clipPath id="SVGID_7_">
				<use xlink:href="#SVGID_6_"  overflow="visible"/>
			</clipPath>
			<path clip-path="url(#SVGID_7_)" fill="none" stroke="#000000" stroke-miterlimit="10" d="M310.4,515.5c-0.5-0.3-1-0.6-1.5-0.9"
				/>
		</g>
	</g>
	<g>
		<g>
			<defs>
				<path id="SVGID_8_" d="M179.2,556c7.8,27.6,22.3,51.1,41.4,69.3c14.2,13.5,30.9,24.2,49.2,31.5c10.5,4.2,21.6,7.3,33.1,9.3l0,0
					c7.5,0,15.3-1.3,23-4c8.6-3,16.3-7.5,22.9-13.1c-28.8-2.1-54.8-15.9-71.4-38.4c-6.7-9-11.8-19.3-15.1-30.9
					c-1.7-5.9-2.7-11.8-3.3-17.8c-0.1-1.4-0.2-2.8-0.3-4.3c-6.2-1.2-12.4-2.7-18.4-4.6c-2-0.6-4-1.3-6-2c-4.9-1.7-9.7-3.7-14.3-5.9
					c-11.8-5.6-22.7-12.5-32.7-20.8c-4.7-0.4-9.3-1.1-13.8-1.9C174.2,533.5,176.1,544.8,179.2,556"/>
			</defs>
			<clipPath id="SVGID_9_">
				<use xlink:href="#SVGID_8_"  overflow="visible"/>
			</clipPath>
			
				<linearGradient id="SVGID_10_" gradientUnits="userSpaceOnUse" x1="-231.9367" y1="570.0104" x2="-230.9366" y2="570.0104" gradientTransform="matrix(113.7431 -37.7534 34.4153 113.1647 6963.9346 -72645.4063)">
				<stop  offset="0" style="stop-color:#518B83"/>
				<stop  offset="0.0287" style="stop-color:#518B83"/>
				<stop  offset="0.0396" style="stop-color:#53857C"/>
				<stop  offset="0.1063" style="stop-color:#5B9087"/>
				<stop  offset="0.1771" style="stop-color:#5B9087"/>
				<stop  offset="0.2021" style="stop-color:#5B9087"/>
				<stop  offset="0.3229" style="stop-color:#5B9087"/>
				<stop  offset="0.3479" style="stop-color:#5B9087"/>
				<stop  offset="0.3979" style="stop-color:#5B9087"/>
				<stop  offset="0.4271" style="stop-color:#5A9087"/>
				<stop  offset="0.7021" style="stop-color:#B4C6AB"/>
				<stop  offset="0.9563" style="stop-color:#B3C7A6"/>
				<stop  offset="1" style="stop-color:#BEBFC4"/>
			</linearGradient>
			<polygon clip-path="url(#SVGID_9_)" fill="url(#SVGID_10_)" points="130.9,520.6 301.1,464.1 366.5,679 196.2,735.6 			"/>
		</g>
	</g>
	<g>
		<g>
			<defs>
				
					<rect id="SVGID_11_" x="-186.2" y="-223.77" transform="matrix(0.6573 -0.7536 0.7536 0.6573 -193.2001 366.355)" width="984.88" height="1238.77"/>
			</defs>
			<clipPath id="SVGID_12_">
				<use xlink:href="#SVGID_11_"  overflow="visible"/>
			</clipPath>
			<path clip-path="url(#SVGID_12_)" fill="#C7DECD" d="M324.5,476.1c-6.1,0.1-12.4,0.8-18.6,2l0,0c-11,6.6-18.8,17.3-21.9,29
				c-0.2,0.1-0.5,0.2-0.7,0.3c-0.8,0.4-1.7,0.8-2.5,1.2c-1.1,0.5-2.1,1-3.2,1.4c-1.1,0.5-2.1,0.9-3.2,1.4c-1.9,0.8-3.9,1.6-5.8,2.3
				c-0.7,0.3-1.5,0.6-2.2,0.8c-0.6,0.2-1.3,0.5-1.9,0.7c-1.4,0.5-2.8,1-4.2,1.4c-2.4,0.8-4.9,1.5-7.3,2.2c-1,0.3-2,0.6-3,0.8
				c-1,0.3-2.1,0.6-3.1,0.8c-0.7,0.2-1.3,0.3-2,0.5c-0.8,0.2-1.7,0.4-2.5,0.6c-0.5,0.1-1,0.2-1.5,0.3c-0.8,0.2-1.5,0.3-2.3,0.5
				c-0.5,0.1-1,0.2-1.5,0.3c-0.8,0.2-1.6,0.3-2.4,0.4c-0.1,0-0.2,0-0.4,0.1c-0.2,0-0.4,0.1-0.6,0.1c-1.2,0.2-2.4,0.4-3.6,0.6
				c-0.3,0.1-0.6,0.1-0.9,0.1c-1,0.2-2.1,0.3-3.2,0.4c-0.4,0.1-0.8,0.1-1.2,0.1c-1.3,0.2-2.7,0.3-4,0.4c-1.1,0.1-2.3,0.2-3.4,0.3
				c-0.7,0.1-1.4,0.1-2.1,0.2c-1.2,0.1-2.5,0.2-3.7,0.2c-1.4,0.1-2.7,0.1-4.1,0.1c-0.8,0-1.7,0-2.5,0s-1.5,0-2.3,0
				c-1.3,0-2.7,0-4-0.1c-3.5-0.1-7-0.3-10.5-0.7c-4.7-0.4-9.3-1.1-13.8-1.9c-16.7-3-32.6-8.5-47.2-16.3c-7.3-3.9-14.3-8.4-20.9-13.4
				c-3.3-2.6-6.6-5.3-9.7-8.1C82.5,472.3,70.7,456.9,62,439c-4-8.2-7.3-16.9-9.9-26c-9.7-34.5-7.4-70.5,4.4-103.5
				c1.2-3.4,2.5-6.8,4-10.1c0.5-0.2,1-0.4,1.5-0.6c31,5.2,57.6,24.3,71.2,53.1c0.7,1.8,1.5,3.6,2.3,5.3
				c19.9,42.4,68.3,63.8,117.1,50.7l0.1,0.4C262.3,444.4,290.4,468.7,324.5,476.1"/>
		</g>
	</g>
	<g>
		<g>
			<defs>
				<path id="SVGID_13_" d="M431.5,228.8c23.3,14.9,51.1,19.5,77.7,14.9c0.2,0.3,0.4,0.6,0.6,0.9c21.4-16.6,36.9-40.3,41.7-67.7
					c4.9-27.4-1.8-53.4-16.6-73.8c-21.4,16.6-36.9,40.3-41.7,67.7c-2.2,12.4-2,24.6,0.2,36c-7-9.8-16-18.4-26.9-25.4
					c-23.3-14.9-51.2-19.5-77.8-14.9C393.6,191.3,408.1,213.9,431.5,228.8"/>
			</defs>
			<clipPath id="SVGID_14_">
				<use xlink:href="#SVGID_13_"  overflow="visible"/>
			</clipPath>
			
				<linearGradient id="SVGID_15_" gradientUnits="userSpaceOnUse" x1="-230.2571" y1="567.947" x2="-229.2574" y2="567.947" gradientTransform="matrix(162.7572 13.2048 -17.7484 163.8252 47945.3828 -89841.7656)">
				<stop  offset="0" style="stop-color:#518B83"/>
				<stop  offset="0.1245" style="stop-color:#518B83"/>
				<stop  offset="0.2562" style="stop-color:#5B9087"/>
				<stop  offset="0.3479" style="stop-color:#5B9087"/>
				<stop  offset="0.5437" style="stop-color:#5A9087"/>
				<stop  offset="0.9104" style="stop-color:#B4C6AB"/>
				<stop  offset="0.9563" style="stop-color:#B3C7A6"/>
				<stop  offset="1" style="stop-color:#BEBFC4"/>
			</linearGradient>
			<polygon clip-path="url(#SVGID_14_)" fill="url(#SVGID_15_)" points="388.1,50.3 604.1,67.9 580.2,288.6 364.2,271.1 			"/>
		</g>
	</g>
	<g>
		<g>
			<defs>
				<path id="SVGID_16_" d="M280.4,509.2c42.9,5.4,44.2,29.6,44.2,29.6c-0.1-0.6-0.3-1.2-0.5-1.7c-8.7,62.3,39.2,96.5,39.2,96.5
					c97.7,58.1,165-47.5,165-47.5c-111.6,18-121.4-74.3-121.4-74.3c-31-42-88.7-38-102-34c-3.7,1.1-7.2,4-10.4,7.7
					C286.3,494.8,280.4,509.2,280.4,509.2"/>
			</defs>
			<clipPath id="SVGID_17_">
				<use xlink:href="#SVGID_16_"  overflow="visible"/>
			</clipPath>
			
				<linearGradient id="SVGID_18_" gradientUnits="userSpaceOnUse" x1="-231.8884" y1="567.4363" x2="-230.8884" y2="567.4363" gradientTransform="matrix(206.8491 -75.6482 54.7797 203.2332 17187.2207 -132262.125)">
				<stop  offset="0" style="stop-color:#006372"/>
				<stop  offset="0.0646" style="stop-color:#006372"/>
				<stop  offset="0.2146" style="stop-color:#4B8B82"/>
				<stop  offset="0.3479" style="stop-color:#5B9087"/>
				<stop  offset="0.4854" style="stop-color:#5A9087"/>
				<stop  offset="0.7896" style="stop-color:#B4C6AB"/>
				<stop  offset="0.9563" style="stop-color:#B3C7A6"/>
				<stop  offset="1" style="stop-color:#BEBFC4"/>
			</linearGradient>
			<polygon clip-path="url(#SVGID_17_)" fill="url(#SVGID_18_)" points="228.3,469.6 482.7,376.6 561.4,668.3 306.9,761.4 			"/>
		</g>
	</g>
	<g>
		<g>
			<defs>
				
					<rect id="SVGID_19_" x="-186.2" y="-223.77" transform="matrix(0.6573 -0.7536 0.7536 0.6573 -193.2001 366.355)" width="984.88" height="1238.77"/>
			</defs>
			<clipPath id="SVGID_20_">
				<use xlink:href="#SVGID_19_"  overflow="visible"/>
			</clipPath>
			
				<linearGradient id="SVGID_21_" gradientUnits="userSpaceOnUse" x1="-231.9654" y1="567.3858" x2="-230.9654" y2="567.3858" gradientTransform="matrix(200.2877 -66.479 60.6011 199.2692 12381.2041 -127897.4219)">
				<stop  offset="0" style="stop-color:#006372"/>
				<stop  offset="0.0646" style="stop-color:#006372"/>
				<stop  offset="0.2146" style="stop-color:#4B8B82"/>
				<stop  offset="0.3479" style="stop-color:#5B9087"/>
				<stop  offset="0.4854" style="stop-color:#5A9087"/>
				<stop  offset="0.7896" style="stop-color:#B4C6AB"/>
				<stop  offset="0.9563" style="stop-color:#B3C7A6"/>
				<stop  offset="1" style="stop-color:#BEBFC4"/>
			</linearGradient>
			<path clip-path="url(#SVGID_20_)" fill="url(#SVGID_21_)" d="M283.2,507.4L283.2,507.4c0,0,5.2-13.5,12.8-22.3
				c3-3.4,6.3-6.1,9.8-7c11.2-3,55.7-4.8,87.6,23c4.3,3.8,8.4,8.1,12.1,13c0,0,4.4,31.1,30.3,53.6c17.8,15.5,45.8,27,89.6,21.5
				c0,0-3.9,6.2-11.2,14.6c-21.9,25.1-74.5,69.5-146.7,25.4c0,0-1.5-1.1-4-3.2c-11.3-9.8-42.4-41.7-37.2-90.5
				c0.2,0.5,0.4,1.1,0.5,1.7c0,0-0.7-8-9.9-16C310.8,515.7,300.3,510.2,283.2,507.4L283.2,507.4L283.2,507.4
				c17.1,2.7,27.5,8.2,33.9,13.8c9.1,8,9.9,16,9.9,16c-0.2-0.6-0.4-1.1-0.5-1.7c-5.2,48.7,25.9,80.6,37.2,90.5c2.5,2.1,4,3.2,4,3.2
				c72.2,44.1,124.9-0.3,146.7-25.4c7.3-8.4,11.2-14.6,11.2-14.6c-43.8,5.5-71.8-6-89.6-21.5c-25.9-22.6-30.3-53.6-30.3-53.6
				c-3.7-4.9-7.8-9.2-12.1-13c-31.9-27.8-76.4-25.9-87.6-23c-3.5,0.9-6.9,3.6-9.8,7C288.4,493.9,283.2,507.4,283.2,507.4
				L283.2,507.4z"/>
		</g>
	</g>
</g>
</svg>
